<?xml version="1.0" encoding="UTF-8" standalone="no"?>
<!-- Created with Inkscape (http://www.inkscape.org/) -->

<svg
   width="285mm"
   height="285mm"
   viewBox="0 0 285 285"
   version="1.1"
   id="svg1"
   xml:space="preserve"
   xmlns:xlink="http://www.w3.org/1999/xlink"
   xmlns="http://www.w3.org/2000/svg"
   xmlns:svg="http://www.w3.org/2000/svg"><defs
     id="defs1"><linearGradient
       id="linearGradient1589"><stop
         style="stop-color:#ea4335;stop-opacity:1;"
         offset="0"
         id="stop1586" /><stop
         style="stop-color:#4285f4;stop-opacity:1;"
         offset="0.32042551"
         id="stop1587" /><stop
         style="stop-color:#34a853;stop-opacity:1;"
         offset="0.60450214"
         id="stop1588" /><stop
         style="stop-color:#fbbc05;stop-opacity:1;"
         offset="0.97761875"
         id="stop1589" /></linearGradient><linearGradient
       id="linearGradient1581"><stop
         style="stop-color:#ea4335;stop-opacity:1;"
         offset="0"
         id="stop1578" /><stop
         style="stop-color:#4285f4;stop-opacity:1;"
         offset="0.34448779"
         id="stop1579" /><stop
         style="stop-color:#34a853;stop-opacity:1;"
         offset="0.73440593"
         id="stop1580" /><stop
         style="stop-color:#fbbc05;stop-opacity:1;"
         offset="0.90191573"
         id="stop1581" /></linearGradient><linearGradient
       id="linearGradient1167"><stop
         style="stop-color:#4285f4;stop-opacity:1;"
         offset="0"
         id="stop1167" /><stop
         style="stop-color:#ea4335;stop-opacity:1;"
         offset="0.36849752"
         id="stop1170" /><stop
         style="stop-color:#fbbc05;stop-opacity:1;"
         offset="0.64485675"
         id="stop1171" /><stop
         style="stop-color:#34a853;stop-opacity:1;"
         offset="1"
         id="stop1168" /></linearGradient><linearGradient
       xlink:href="#linearGradient1589"
       id="linearGradient1595"
       gradientUnits="userSpaceOnUse"
       x1="-747.96802"
       y1="2395.053"
       x2="-701.0766"
       y2="2353.7126"
       gradientTransform="translate(166.02594,-95.61938)" /><linearGradient
       xlink:href="#linearGradient1581"
       id="linearGradient1596"
       gradientUnits="userSpaceOnUse"
       x1="-702.59406"
       y1="2352.2"
       x2="-677.88544"
       y2="2378.416"
       gradientTransform="translate(166.02594,-95.61938)" /><linearGradient
       xlink:href="#linearGradient1167"
       id="linearGradient1597"
       gradientUnits="userSpaceOnUse"
       gradientTransform="translate(-184.01353,237.34809)"
       x1="-396.875"
       y1="2041.9823"
       x2="-354.99387"
       y2="2041.9823" /></defs><g
     id="layer1"
     transform="translate(514.86798,-2243.6664)"><path
       style="fill:#f7d000;fill-opacity:1;stroke-width:0.413169"
       d="m -317.18489,2415.4266 0.88536,-0.9424 -0.85447,-2.8794 c -1.38898,-4.6804 -5.28266,-14.2258 -7.07331,-17.3403 -2.87715,-5.004 -7.13708,-8.2294 -12.3439,-9.3461 -4.39521,-0.9426 -10.66035,0.5048 -13.1331,3.0339 l -1.26673,1.2957 2.99115,1.311 c 1.64513,0.721 6.10541,2.662 9.91172,4.3131 l 7.50721,2.9361 v 2.594 2.594 l 2.52368,3.082 c 1.50959,1.8436 4.53637,4.6528 6.27932,6.6534 1.74293,2.0006 3.2857,3.6375 3.42834,3.6375 0.14267,0 0.65779,-0.4241 1.14473,-0.9425 z"
       id="path1348" /><path
       style="fill:#4286f4;fill-opacity:1;stroke-width:0.413169"
       d="m -364.97393,2387.2407 c 0,-2.8782 0.13775,-3.9183 0.51646,-3.8998 0.28404,0.014 2.09683,0.7426 4.02839,1.6193 l 3.51193,1.5939 0.6061,-0.8962 c 0.33336,-0.493 1.38452,-1.6929 2.33587,-2.6667 l 1.72977,-1.7705 -1.19555,-5.4352 c -0.65756,-2.9894 -1.33684,-5.5681 -1.50953,-5.7304 -0.17268,-0.1624 -2.26621,0.1355 -4.65226,0.6619 -2.38604,0.5265 -5.40733,1.0799 -6.71398,1.2298 l -2.37572,0.2727 v 6.2623 c 0,5.7794 0.0848,6.486 1.09981,9.1633 1.02641,2.7073 1.54642,3.4988 2.30883,3.5144 0.17043,0 0.30987,-1.76 0.30988,-3.9188 z"
       id="path1349" /><path
       style="fill:#ea4335;fill-opacity:1;stroke-width:1.16862"
       d="m -442.09815,2402.4015 c -2.69101,-2.3036 -3.03832,-2.4836 -3.03832,-2.4836 0,0 1.60116,-5.5665 2.88614,-8.7484 1.28499,-3.1819 3.82881,-8.0382 5.02734,-10.158 1.84225,-3.2584 1.89794,-3.2282 2.2318,-3.7365 1.49672,0.2727 3.95064,0.7888 5.32694,2.3859 1.25046,1.451 2.29348,3.0268 2.84243,3.9609 0.87382,1.4869 1.47789,3.3291 1.83814,5.6946 -0.75744,1.7219 -2.4948,5.6658 -3.68844,8.5215 -0.75575,1.8082 -1.49225,3.6246 -2.19881,5.4525 -0.85499,2.2119 -1.86437,5.0852 -2.46871,6.6721 -1.58454,-1.2189 -2.74564,-2.336 -4.59992,-3.914 -1.43536,-1.2215 -2.89785,-2.5677 -4.15859,-3.647 z"
       id="path1350" /><path
       style="fill:#4286f4;fill-opacity:1;stroke-width:0.413169"
       d="m -378.37798,2387.2407 c 0,-2.8782 -0.13775,-3.9183 -0.51646,-3.8998 -0.28404,0.014 -2.09683,0.7426 -4.02839,1.6193 l -3.51193,1.5939 -0.6061,-0.8962 c -0.33336,-0.493 -1.38452,-1.6929 -2.33587,-2.6667 l -1.72977,-1.7705 1.19555,-5.4352 c 0.65756,-2.9894 1.33684,-5.5681 1.50953,-5.7304 0.17268,-0.1624 2.26621,0.1355 4.65226,0.6619 2.38604,0.5265 5.40733,1.0799 6.71398,1.2298 l 2.37572,0.2727 v 6.2623 c 0,5.7794 -0.0848,6.486 -1.09981,9.1633 -1.02641,2.7073 -1.54642,3.4988 -2.30883,3.5144 -0.17043,0 -0.30987,-1.76 -0.30988,-3.9188 z"
       id="path1351" /><path
       style="fill:#40a95a;fill-opacity:1;stroke-width:0.413169"
       d="m -380.03065,2364.9352 c -4.31444,-0.8619 -6.19752,-1.4515 -6.19752,-1.9407 0,-1.0525 3.00337,-6.5861 4.63815,-8.5456 1.70307,-2.0414 5.79449,-5.4263 6.55887,-5.4263 0.20774,0 0.37169,3.6448 0.37169,8.2634 v 8.2633 l -1.3428,-0.039 c -0.73854,-0.021 -2.55131,-0.2802 -4.02839,-0.5753 z"
       id="path1352" /><path
       style="fill:#40a95a;fill-opacity:1;stroke-width:0.413169"
       d="m -368.46192,2357.286 c 0,-4.5449 0.12316,-8.2634 0.27369,-8.2634 0.7745,0 4.5099,2.8279 6.19756,4.6919 1.68815,1.8645 5.09744,8.0829 5.09744,9.2975 0,0.6415 -7.89913,2.5373 -10.57211,2.5373 h -0.99658 z"
       id="path1353" /><path
       style="fill:#f7d000;fill-opacity:1;stroke-width:0.413169"
       d="m -426.63367,2415.4266 -0.88536,-0.9424 0.85447,-2.8794 c 1.38898,-4.6804 5.28266,-14.2258 7.07331,-17.3403 2.87715,-5.004 7.13708,-8.2294 12.3439,-9.3461 4.39521,-0.9426 10.66035,0.5048 13.1331,3.0339 l 1.26673,1.2957 -2.99115,1.311 c -1.64513,0.721 -6.10541,2.662 -9.91172,4.3131 l -7.50721,2.9361 v 2.594 2.594 l -2.52368,3.082 c -1.50959,1.8436 -4.53637,4.6528 -6.27932,6.6534 -1.74293,2.0006 -3.2857,3.6375 -3.42834,3.6375 -0.14267,0 -0.65779,-0.4241 -1.14473,-0.9425 z"
       id="path1354" /><path
       style="fill:#4286f4;fill-opacity:1;stroke-width:0.413169"
       d="m -411.87699,2377.6345 c 1.44164,-2.7549 5.14573,-8.684 7.13966,-11.4283 l 1.94269,-2.6738 4.15369,1.9381 c 3.1105,1.4513 4.09235,2.0938 3.90944,2.5578 -0.13438,0.3409 -0.76528,2.8509 -1.40203,5.5778 -0.85026,3.6413 -1.30719,4.9118 -1.72044,4.7839 -0.30946,-0.096 -2.63302,-0.2546 -5.16345,-0.3529 -3.43483,-0.1336 -5.17861,-0.011 -6.88086,0.4839 -1.25405,0.3646 -2.39472,0.6629 -2.5348,0.6629 -0.14007,0 0.11018,-0.6972 0.5561,-1.5494 z"
       id="path1355" /><path
       style="fill:#4286f4;fill-opacity:1;stroke:none;stroke-width:0.413169;stroke-opacity:1"
       d="m -422.15833,2377.2618 c -1.51197,-2.1939 -4.71165,-4.8577 -6.98133,-5.812 l -1.35899,-0.5714 2.59564,-3.2678 c 3.71065,-4.6715 7.53398,-8.3045 11.42412,-10.8554 l 3.38002,-2.2164 2.48581,2.1535 c 1.36721,1.1844 2.36429,2.3501 2.2158,2.5904 -0.14848,0.2402 -1.26742,1.827 -2.48653,3.5262 -2.178,3.0357 -5.02898,7.7408 -8.22622,13.5762 l -1.61774,2.9526 z"
       id="path1356" /><path
       style="fill:#ea4335;fill-opacity:1;stroke-width:0.413169"
       d="m -405.31704,2352.8784 -1.51542,-1.5155 2.14206,-1.0048 c 2.65923,-1.2474 9.29643,-3.8145 9.86242,-3.8145 0.23048,0 -1.04048,1.1863 -2.82434,2.6362 -1.78382,1.4499 -3.78942,3.2162 -4.45685,3.9251 -0.66745,0.7089 -1.32127,1.2889 -1.45298,1.2889 -0.13173,0 -0.9214,-0.682 -1.75489,-1.5154 z"
       id="path1357" /><path
       style="fill:#f7d000;fill-opacity:1;stroke-width:0.413169"
       d="m -395.4186,2359.8359 c -1.30521,-0.6071 -2.37428,-1.2025 -2.37572,-1.323 -0.008,-0.6558 10.18827,-8.5269 10.56173,-8.1534 0.11005,0.11 -0.4175,1.1177 -1.17232,2.2394 -0.75481,1.1216 -2.00187,3.4718 -2.77125,5.2225 -0.76939,1.7507 -1.50471,3.1685 -1.63408,3.1507 -0.12937,-0.018 -1.30313,-0.5291 -2.60836,-1.1362 z"
       id="path1358" /><path
       style="fill:#ea4335;fill-opacity:1;stroke-width:1.16862"
       d="m -302.63784,2402.4015 c 2.69101,-2.3036 3.03832,-2.4836 3.03832,-2.4836 0,0 -1.60116,-5.5665 -2.88614,-8.7484 -1.28499,-3.1819 -3.82881,-8.0382 -5.02734,-10.158 -1.84225,-3.2584 -1.89794,-3.2282 -2.2318,-3.7365 -1.49672,0.2727 -3.95064,0.7888 -5.32694,2.3859 -1.25046,1.451 -2.29348,3.0268 -2.84243,3.9609 -0.87382,1.4869 -1.47789,3.3291 -1.83814,5.6946 0.75744,1.7219 2.4948,5.6658 3.68844,8.5215 0.75575,1.8082 1.49225,3.6246 2.19881,5.4525 0.85499,2.2119 1.86437,5.0852 2.46871,6.6721 1.58454,-1.2189 2.74564,-2.336 4.59992,-3.914 1.43536,-1.2215 2.89785,-2.5677 4.15859,-3.647 z"
       id="path1360" /><path
       style="fill:#4286f4;fill-opacity:1;stroke:none;stroke-width:0.413169;stroke-opacity:1"
       d="m -322.57766,2377.2618 c 1.51197,-2.1939 4.71165,-4.8577 6.98133,-5.812 l 1.35899,-0.5714 -2.59564,-3.2678 c -3.71065,-4.6715 -7.53398,-8.3045 -11.42412,-10.8554 l -3.38002,-2.2164 -2.48581,2.1535 c -1.36721,1.1844 -2.36429,2.3501 -2.2158,2.5904 0.14848,0.2402 1.26742,1.827 2.48653,3.5262 2.178,3.0357 5.02898,7.7408 8.22622,13.5762 l 1.61774,2.9526 z"
       id="path1361" /><path
       style="fill:#ea4335;fill-opacity:1;stroke-width:0.413169"
       d="m -339.41895,2352.7048 1.51542,-1.5155 -2.14206,-1.0048 c -2.65923,-1.2474 -9.29643,-3.8145 -9.86242,-3.8145 -0.23048,0 1.04048,1.1863 2.82434,2.6362 1.78382,1.4499 3.78942,3.2162 4.45685,3.9251 0.66745,0.7089 1.32127,1.2889 1.45298,1.2889 0.13173,0 0.9214,-0.682 1.75489,-1.5154 z"
       id="path1362" /><path
       style="fill:#4286f4;fill-opacity:1;stroke-width:0.413169"
       d="m -331.66609,2377.6345 c -1.44164,-2.7549 -5.14573,-8.684 -7.13966,-11.4283 l -1.94269,-2.6738 -4.15369,1.9381 c -3.1105,1.4513 -4.09235,2.0938 -3.90944,2.5578 0.13438,0.3409 0.76528,2.8509 1.40203,5.5778 0.85026,3.6413 1.30719,4.9118 1.72044,4.7839 0.30946,-0.096 2.63302,-0.2546 5.16345,-0.3529 3.43483,-0.1336 5.17861,-0.011 6.88086,0.4839 1.25405,0.3646 2.39472,0.6629 2.5348,0.6629 0.14007,0 -0.11018,-0.6972 -0.5561,-1.5494 z"
       id="path1363" /><path
       style="fill:#f7d000;fill-opacity:1;stroke-width:0.413169"
       d="m -348.12448,2359.8359 c 1.30521,-0.6071 2.37428,-1.2025 2.37572,-1.323 0.008,-0.6558 -10.18827,-8.5269 -10.56173,-8.1534 -0.11005,0.11 0.4175,1.1177 1.17232,2.2394 0.75481,1.1216 2.00187,3.4718 2.77125,5.2225 0.76939,1.7507 1.50471,3.1685 1.63408,3.1507 0.12937,-0.018 1.30313,-0.5291 2.60836,-1.1362 z"
       id="path1364" /><g
       id="g1597"
       transform="translate(183.51232,128.53444)"><path
         style="fill:#1a1a1a;fill-opacity:1;stroke:url(#linearGradient1596);stroke-width:4.29435;stroke-dasharray:none;stroke-opacity:1"
         d="m -547.16799,2303.7987 30.89551,-14.8265 0.12766,-18.3849 -31.15083,-13.4921 v 16.3092 l 18.25644,7.5615 -18.51178,7.1167 z"
         id="path1594" /><path
         style="fill:#1a1a1a;fill-opacity:1;stroke:url(#linearGradient1595);stroke-width:4.29435;stroke-dasharray:none;stroke-opacity:1"
         d="m -564.02691,2303.7987 -30.89551,-14.8265 -0.12766,-18.3849 31.15083,-13.4921 v 16.3092 l -18.25644,7.5615 18.51178,7.1167 z"
         id="path1595" /><path
         style="fill:#1a1a1a;stroke:url(#linearGradient1597);stroke-width:4.32088;stroke-dasharray:none;stroke-opacity:1"
         d="m -577.80388,2305.1439 h 17.48037 l 18.26037,-51.6271 h -16.96369 z"
         id="path1596" /></g></g></svg>
