<?xml version="1.0" encoding="UTF-8" standalone="no"?>
<!-- Created with Inkscape (http://www.inkscape.org/) -->

<svg
   width="163.5379mm"
   height="99.586166mm"
   viewBox="0 0 163.5379 99.586166"
   version="1.1"
   id="svg1"
   xml:space="preserve"
   xmlns="http://www.w3.org/2000/svg"
   xmlns:svg="http://www.w3.org/2000/svg"><defs
     id="defs1" /><g
     id="layer1"
     transform="translate(124.73782,-2349.341)"><rect
       style="fill:#1a1a1a;stroke-width:0.264583"
       id="rect367"
       width="285"
       height="285"
       x="-185.59196"
       y="2258.4832" /><g
       id="g464"
       style="fill:#ffffff;stroke:none;stroke-width:1.25664;stroke-dasharray:none"
       transform="matrix(0.98416917,0,0,0.98416917,12.371406,-256.75099)"><path
         style="fill:#ffffff;fill-opacity:1;stroke:none;stroke-width:1.25664;stroke-dasharray:none;stroke-opacity:1"
         d="m -56.31577,2625.8423 v 42.8555"
         id="path457" /></g><g
       id="g632"
       transform="translate(333.83044,51.3199)"><path
         style="fill:#ffffff;stroke:none;stroke-width:58.0027;stroke-dasharray:none;stroke-opacity:1"
         d="m -362.76562,2246.9863 c -3.8558,0.035 -7.74774,0.3945 -11.57227,1.1836 -13.5936,2.8049 -27.2118,7.9823 -38.82227,15.9727 -6.50603,4.4775 -11.52603,10.868 -15.76757,16.6621 -4.56941,6.2419 -8.11578,13.1583 -11.15235,19.9726 -1.11272,2.4971 -2.87268,7.7069 -4.19531,12.2207 l -0.74609,2.545 29.48437,25.4355 2.6543,-3.4707 c 0.80979,-1.0584 0.80419,-1.0524 2.21094,-2.7519 1.40674,-1.6996 3.3908,-4.0128 5.6621,-6.4278 2.27131,-2.4149 4.8365,-4.9329 7.35157,-7.0215 2.51506,-2.0885 5.02024,-3.7241 6.84179,-4.4433 17.41568,-6.8762 39.11022,-7.2369 56.44336,-0.4199 1.73885,0.6838 4.15815,2.2786 6.58008,4.33 2.42193,2.0515 4.88817,4.5329 7.07031,6.918 2.18215,2.3851 4.08574,4.6742 5.4336,6.3555 1.34786,1.6813 1.34218,1.6745 2.11523,2.7207 l 2.44922,3.3164 31.7832,-23.5274 -1.11718,-2.9218 c -5.85173,-15.284 -13.88563,-31.1611 -19.73633,-38.0489 -7.6294,-8.9816 -17.73907,-15.6994 -27.89844,-20.7851 -7.42756,-3.7181 -15.58327,-5.9462 -23.63867,-7.0488 -3.73649,-0.5116 -7.579,-0.8002 -11.43359,-0.7657 z"
         id="path550"
         transform="matrix(0.98469316,0,0,0.95771519,-20.358652,146.05104)" /><g
         id="g631"
         transform="translate(-433.59483,1324.0762)"><path
           style="fill:#ff2a2a;fill-opacity:1;stroke-width:1.16862"
           d="m -13.724045,1040.5143 c -2.69101,-2.3036 -3.03831,-2.4836 -3.03831,-2.4836 0,0 1.60116,-5.5665 2.88614,-8.7484 1.28498,-3.1819 3.82881,-8.0382 5.0273303,-10.158 1.84225,-3.2584 1.89794,-3.2282 2.2318,-3.7365 1.49672,0.2727 3.95064,0.7888 5.32694,2.3859 1.25046,1.451 2.29348,3.0268 2.84243,3.9609 0.87382,1.4869 1.47789,3.3291 1.83814,5.6946 -0.75744,1.7219 -2.4948,5.6658 -3.68844,8.5215 -0.75575,1.8082 -1.49225,3.6246 -2.19881,5.4525 -0.85499,2.2119 -1.86437,5.0852 -2.46871,6.6721 -1.58454,-1.2189 -2.74564,-2.336 -4.59992,-3.914 -1.4353503,-1.2215 -2.8978503,-2.5677 -4.1585903,-3.647 z"
           id="path551" /><path
           style="fill:#ff2a2a;fill-opacity:1;stroke-width:0.584309"
           d="m 116.6799,1045.4198 c -0.4029,-1.3653 -2.17471,-6.1357 -3.93737,-10.601 l -3.20485,-8.1186 0.99543,-2.6064 c 1.25981,-3.2988 4.05897,-6.5086 6.60286,-7.5715 1.08423,-0.453 2.04397,-0.7425 2.13283,-0.6434 1.17505,1.3117 10.22972,21.1722 10.22972,22.4379 0,0.4009 -1.90632,2.1085 -4.23624,3.7948 -2.32994,1.6862 -5.04931,3.6789 -6.04305,4.4282 l -1.8068,1.3623 z"
           id="path552" /><path
           style="fill:#16326c;fill-opacity:1;stroke-width:0.584309"
           d="m 102.34465,1011.7098 c -1.43229,-2.8519 -4.068935,-7.3364 -5.859175,-9.9655 l -3.25502,-4.78031 1.96815,-2.1785 1.96814,-2.1785 3.457175,2.323 c 3.38406,2.2739 14.28159,12.70611 14.2518,13.64331 -0.008,0.2608 -1.03162,0.9425 -2.27406,1.5147 -1.24244,0.5723 -3.4726,2.338 -4.95592,3.9237 l -2.69691,2.8833 z"
           id="path553" /><path
           style="fill:#ff2a2a;fill-opacity:1;stroke-width:0.146077"
           d="m 86.405735,990.39349 c -2.49556,-2.3128 -5.32209,-4.6444 -7.50343,-6.1898 -0.89891,-0.6369 -1.54899,-1.1762 -1.44464,-1.1987 0.27411,-0.059 4.70239,1.4669 6.75692,2.3282 1.68184,0.7051 6.61501,3.1407 7.14248,3.5264 0.22929,0.1677 0.11555,0.3342 -1.17152,1.7144 -0.784,0.8407 -1.49505,1.5705 -1.5801,1.6217 -0.085,0.051 -1.0749,-0.7598 -2.19971,-1.8022 z"
           id="path554" /><path
           style="fill:#f7d000;fill-opacity:1;stroke-width:0.292153"
           d="m 77.057835,997.43439 c -1.04595,-2.8869 -2.76397,-6.1125 -4.37541,-8.2149 -0.81671,-1.0656 -1.40961,-1.9375 -1.31755,-1.9375 0.28455,0 4.58881,2.9502 6.13016,4.2017 3.27328,2.6576 5.6801,4.9383 5.50704,5.2183 -0.16056,0.2598 -4.78381,2.5584 -5.14575,2.5584 -0.0753,0 -0.43463,-0.8217 -0.79849,-1.826 z"
           id="path555" /><path
           style="fill:#f7d000;fill-opacity:1;stroke-width:0.292153"
           d="m 95.316465,1017.3566 c -3.19159,-1.1354 -6.16014,-1.5569 -9.34895,-1.3273 -1.44616,0.1041 -2.98486,0.2662 -3.41934,0.3602 -0.66094,0.143 -0.81304,0.058 -0.93123,-0.5179 -0.97747,-4.7665 -1.98129,-10.2291 -1.89458,-10.3099 0.0604,-0.056 1.35887,-0.685 2.88538,-1.3969 1.52649,-0.7119 3.32095,-1.6398 3.98766,-2.062 l 1.21219,-0.7675 1.81253,2.5414 c 2.70729,3.796 8.81431,14.4322 8.23513,14.3425 -0.11085,-0.017 -1.25332,-0.4053 -2.53879,-0.8626 z"
           id="path556" /><path
           style="fill:#f7d000;fill-opacity:1;stroke-width:0.413169"
           d="m 106.69382,1051.0526 c -1.35438,-1.6362 -3.97768,-4.2004 -5.8053,-6.439 -0.895292,-1.0966 -2.521476,-3.4174 -2.521476,-3.4174 v -2.7517 l -0.12089,-2.7049 -9.825359,-3.8434 c -12.770645,-4.9955 -11.74282,-5.0088 -11.12012,-5.7591 0.74844,-0.9018 3.52937,-2.2595 5.95552,-2.9076 2.71902,-0.7263 5.27025,-0.7041 8.24893,0.072 5.97324,1.5558 9.329765,4.7324 13.037875,12.3387 2.29045,4.6983 6.1889,15.2352 6.1889,16.7277 0,0.3718 -0.35449,0.8974 -0.78778,1.168 -0.70043,0.4374 -1.06081,0.1621 -3.2503,-2.483 z"
           id="path557" /><path
           style="fill:#ff2a2a;fill-opacity:1;stroke-width:0.413169"
           d="m 49.996135,1025.3535 c 0,-2.8782 -0.13775,-3.9183 -0.51646,-3.8998 -0.28405,0.014 -2.09683,0.7426 -4.0284,1.6193 l -3.51192,1.5939 -0.60611,-0.8962 c -0.33336,-0.493 -1.38451,-1.6929 -2.33587,-2.6667 l -1.72976,-1.7705 1.19554,-5.4352 c 0.65756,-2.9894 1.33684,-5.5681 1.50953,-5.7304 0.17268,-0.1624 2.26621,0.1355 4.65226,0.6619 2.38605,0.5265 5.40734,1.0799 6.71399,1.2298 l 2.37572,0.2727 v 6.2623 c 0,5.7794 -0.0848,6.486 -1.09981,9.1633 -1.02642,2.7073 -1.54642,3.4988 -2.30884,3.5144 -0.17043,0 -0.30987,-1.76 -0.30987,-3.9188 z"
           id="path579" /><path
           style="fill:#40a95a;fill-opacity:1;stroke-width:0.413169"
           d="m 48.343465,1003.048 c -4.31445,-0.8619 -6.19753,-1.4515 -6.19753,-1.9407 0,-1.0525 3.00338,-6.58611 4.63816,-8.54561 1.70306,-2.0414 5.79449,-5.4263 6.55887,-5.4263 0.20774,0 0.37169,3.6448 0.37169,8.2634 v 8.26331 l -1.3428,-0.039 c -0.73854,-0.021 -2.55132,-0.2802 -4.02839,-0.5753 z"
           id="path600" /><path
           style="fill:#40a95a;fill-opacity:1;stroke-width:0.413169"
           d="m 59.912185,995.39879 c 0,-4.5449 0.12316,-8.2634 0.2737,-8.2634 0.7745,0 4.5099,2.8279 6.19756,4.6919 1.68815,1.8645 5.09744,8.0829 5.09744,9.29751 0,0.6415 -7.89913,2.5373 -10.57212,2.5373 h -0.99658 z"
           id="path621" /><path
           style="fill:#ff2a2a;fill-opacity:1;stroke-width:0.413169"
           d="m 59.912185,1014.1979 c 0,-2.8633 0.1397,-3.9257 0.51645,-3.9275 1.22018,-0.01 8.55563,-1.2722 10.61988,-1.8335 1.23925,-0.3369 2.29597,-0.5699 2.34826,-0.5176 0.19764,0.1976 1.80263,8.5127 1.80263,9.339 0,0.8464 -0.16233,0.8647 -7.64361,0.8647 h -7.64361 z"
           id="path622" /><path
           style="fill:#f7d000;fill-opacity:1;stroke-width:0.413169"
           d="m 1.7404353,1053.5394 -0.88536,-0.9424 0.85447,-2.8794 c 1.38898,-4.6804 5.28266,-14.2258 7.07331,-17.3403 2.8771497,-5.004 7.1370797,-8.2294 12.3439097,-9.3461 4.39521,-0.9426 10.66035,0.5048 13.1331,3.0339 l 1.26673,1.2957 -2.99115,1.311 c -1.64513,0.721 -6.10541,2.662 -9.91173,4.3131 l -7.507208,2.9361 v 2.594 2.594 l -2.523672,3.082 c -1.509596,1.8436 -4.5363797,4.6528 -6.2793297,6.6534 -1.74293,2.0006 -3.2857,3.6375 -3.42834,3.6375 -0.14267,0 -0.65779,-0.4241 -1.14473,-0.9425 z"
           id="path623" /><path
           style="fill:#16326c;fill-opacity:1;stroke-width:0.413169"
           d="m 16.497125,1015.7473 c 1.44163,-2.7549 5.14573,-8.684 7.13966,-11.4283 l 1.94268,-2.6738 4.1537,1.9381 c 3.11049,1.4513 4.09235,2.0938 3.90943,2.5578 -0.13437,0.3409 -0.76528,2.8509 -1.40203,5.5778 -0.85025,3.6413 -1.30718,4.9118 -1.72043,4.7839 -0.30947,-0.096 -2.63302,-0.2546 -5.16345,-0.3529 -3.43484,-0.1336 -5.17862,-0.011 -6.88087,0.4839 -1.25405,0.3646 -2.39471,0.6629 -2.53479,0.6629 -0.14007,0 0.11017,-0.6972 0.5561,-1.5494 z"
           id="path624" /><path
           style="fill:#16326c;fill-opacity:1;stroke-width:0.413169"
           d="m 6.2157753,1015.5482 c -1.51197,-2.1939 -4.71165,-4.8577 -6.98133,-5.812 l -1.35899,-0.5714 2.59564,-3.2678 c 3.71065,-4.6715 7.53398,-8.30451 11.4241197,-10.85541 l 3.38003,-2.2164 2.48581,2.1535 c 1.3672,1.1844 2.36429,2.3501 2.2158,2.5904 -0.14849,0.2402 -1.26743,1.827 -2.48653,3.52621 -2.178,3.0357 -5.02898,7.7408 -8.2262297,13.5762 l -1.61774,2.9526 z"
           id="path625" /><path
           style="fill:#ff2a2a;fill-opacity:1;stroke-width:0.413169"
           d="m 23.057065,990.99119 -1.51542,-1.5155 2.14206,-1.0048 c 2.65923,-1.2474 9.29644,-3.8145 9.86243,-3.8145 0.23047,0 -1.04048,1.1863 -2.82434,2.6362 -1.78383,1.4499 -3.78943,3.2162 -4.45686,3.9251 -0.66744,0.7089 -1.32127,1.2889 -1.45298,1.2889 -0.13172,0 -0.9214,-0.682 -1.75489,-1.5154 z"
           id="path626" /><path
           style="fill:#f7d000;fill-opacity:1;stroke-width:0.413169"
           d="m 32.955515,997.94869 c -1.30522,-0.6071 -2.37429,-1.2025 -2.37572,-1.323 -0.008,-0.6558 10.18826,-8.5269 10.56172,-8.1534 0.11005,0.11 -0.4175,1.1177 -1.17232,2.2394 -0.7548,1.1216 -2.00186,3.4718 -2.77124,5.2225 -0.76939,1.7507 -1.50472,3.1685 -1.63409,3.1507 -0.12936,-0.018 -1.30313,-0.5291 -2.60835,-1.1362 z"
           id="path627" /><path
           style="fill:#ffffff;stroke:#16326c;stroke-width:4.29435;stroke-dasharray:none;stroke-opacity:1"
           d="m 48.296675,1070.1552 -30.89552,-14.8265 -0.12766,-18.3849 31.15083,-13.4921 v 16.3092 l -18.25643,7.5615 18.51178,7.1167 z"
           id="path628" /><path
           style="fill:#ffffff;stroke:#16326c;stroke-width:4.29435;stroke-dasharray:none;stroke-opacity:1"
           d="m 65.186875,1070.1552 30.8955,-14.8265 0.12768,-18.3849 -31.15084,-13.4921 v 16.3092 l 18.25643,7.5615 -18.51178,7.1167 z"
           id="path629" /><path
           style="fill:#ffffff;stroke:#16326c;stroke-width:4.32088;stroke-dasharray:none;stroke-opacity:1"
           d="m 37.7922,1071.3706 h 17.480369 l 18.260375,-51.6271 H 56.56925 Z"
           id="path630" /><path
           style="fill:#16326c;fill-opacity:1;stroke-width:0.292153"
           d="m 95.316465,1017.3566 c -3.19159,-1.1354 -6.16014,-1.5569 -9.34895,-1.3273 -1.44616,0.1041 -2.98486,0.2662 -3.41934,0.3602 -0.66094,0.143 -0.81304,0.058 -0.93123,-0.5179 -0.97747,-4.7665 -1.98129,-10.2291 -1.89458,-10.3099 0.0604,-0.056 1.35887,-0.685 2.88538,-1.3969 1.52649,-0.7119 3.32095,-1.6398 3.98766,-2.062 l 1.21219,-0.7675 1.81253,2.5414 c 2.70729,3.796 8.81431,14.4322 8.23513,14.3425 -0.11085,-0.017 -1.25332,-0.4053 -2.53879,-0.8626 z"
           id="path631" /></g></g></g></svg>
