<?xml version="1.0" encoding="UTF-8" standalone="no"?>
<!-- Created with Inkscape (http://www.inkscape.org/) -->

<svg
   width="285mm"
   height="285mm"
   viewBox="0 0 285 285"
   version="1.1"
   id="svg1"
   xml:space="preserve"
   xmlns:xlink="http://www.w3.org/1999/xlink"
   xmlns="http://www.w3.org/2000/svg"
   xmlns:svg="http://www.w3.org/2000/svg"><defs
     id="defs1"><linearGradient
       id="linearGradient1589"><stop
         style="stop-color:#ea4335;stop-opacity:1;"
         offset="0"
         id="stop1586" /><stop
         style="stop-color:#4285f4;stop-opacity:1;"
         offset="0.32042551"
         id="stop1587" /><stop
         style="stop-color:#34a853;stop-opacity:1;"
         offset="0.60450214"
         id="stop1588" /><stop
         style="stop-color:#fbbc05;stop-opacity:1;"
         offset="0.97761875"
         id="stop1589" /></linearGradient><linearGradient
       id="linearGradient1581"><stop
         style="stop-color:#ea4335;stop-opacity:1;"
         offset="0"
         id="stop1578" /><stop
         style="stop-color:#4285f4;stop-opacity:1;"
         offset="0.34448779"
         id="stop1579" /><stop
         style="stop-color:#34a853;stop-opacity:1;"
         offset="0.73440593"
         id="stop1580" /><stop
         style="stop-color:#fbbc05;stop-opacity:1;"
         offset="0.90191573"
         id="stop1581" /></linearGradient><linearGradient
       id="linearGradient1167"><stop
         style="stop-color:#4285f4;stop-opacity:1;"
         offset="0"
         id="stop1167" /><stop
         style="stop-color:#ea4335;stop-opacity:1;"
         offset="0.36849752"
         id="stop1170" /><stop
         style="stop-color:#fbbc05;stop-opacity:1;"
         offset="0.64485675"
         id="stop1171" /><stop
         style="stop-color:#34a853;stop-opacity:1;"
         offset="1"
         id="stop1168" /></linearGradient><linearGradient
       xlink:href="#linearGradient1581"
       id="linearGradient1610"
       gradientUnits="userSpaceOnUse"
       gradientTransform="translate(166.02594,-95.61938)"
       x1="-702.59406"
       y1="2352.2"
       x2="-677.88544"
       y2="2378.416" /><linearGradient
       xlink:href="#linearGradient1589"
       id="linearGradient1611"
       gradientUnits="userSpaceOnUse"
       gradientTransform="translate(166.02594,-95.61938)"
       x1="-747.96802"
       y1="2395.053"
       x2="-701.0766"
       y2="2353.7126" /><linearGradient
       xlink:href="#linearGradient1167"
       id="linearGradient1612"
       gradientUnits="userSpaceOnUse"
       gradientTransform="translate(-184.01353,237.34809)"
       x1="-396.875"
       y1="2041.9823"
       x2="-354.99387"
       y2="2041.9823" /></defs><g
     id="layer1"
     transform="translate(185.59197,-1915.7878)"><g
       id="text981"
       style="font-size:96px;font-family:Raleway;-inkscape-font-specification:Raleway;text-align:center;white-space:pre;fill:#4286f4;stroke-width:12.5745"
       transform="matrix(0.22715077,0,0,0.22715077,280.74334,1617.6551)"
       aria-label="MATARAM&#10;&lt;DEV&gt;"><path
         style="font-weight:bold;font-family:Heebo;-inkscape-font-specification:'Heebo Bold';fill:#1a1a1a"
         d="m -1635.1297,2124.6154 17.3907,49.3594 17.4375,-49.3594 h 12.0937 l -24.7031,68.25 h -9.7031 l -24.6094,-68.25 z m -6.5156,0 2.1563,49.6875 v 18.5625 h -14.2032 v -68.25 z m 59.8594,0 v 68.25 h -14.2031 v -18.5625 l 2.1562,-49.6875 z m 21.5625,68.25 h -15.0938 l 25.4532,-68.25 h 9.4687 l -1.2187,12.2813 z m 15.2344,-55.9687 -1.3594,-12.2813 h 9.5625 l 25.5469,68.25 h -15.0469 z m 18.1406,41.9531 h -36.375 v -11.4375 h 36.375 z m 46.6124,14.0156 h -14.1562 v -68.25 h 14.1562 z m 20.8594,-56.7656 h -55.5938 v -11.4844 h 55.5938 z m 11.3719,56.7656 h -15.0937 l 25.4531,-68.25 h 9.4688 l -1.2188,12.2813 z m 15.2344,-55.9687 -1.3594,-12.2813 h 9.5625 l 25.5469,68.25 h -15.0469 z m 18.1406,41.9531 h -36.375 v -11.4375 h 36.375 z m 47.4375,-54.2344 q 7.875,0 13.5,2.3906 5.6719,2.3438 8.7188,6.9375 3.0469,4.5469 3.0469,11.2969 0,5.5313 -1.875,9.4688 -1.8282,3.8906 -5.2032,6.5156 -3.3281,2.5781 -7.875,4.1719 l -4.5,2.4843 h -21.7968 v -11.4375 h 15.9843 q 3.6563,0 6.0938,-1.2656 2.4844,-1.2656 3.7031,-3.5156 1.2656,-2.2969 1.2656,-5.3438 0,-4.7343 -2.7187,-7.4531 -2.7188,-2.7656 -8.3438,-2.7656 h -11.2031 v 56.7656 h -14.2031 v -68.25 z m -2.9062,37.7813 h 15 l 15.7031,29.8125 v 0.6562 h -15.1875 z m 48.4312,30.4687 h -15.0938 l 25.4532,-68.25 h 9.4687 l -1.2187,12.2813 z m 15.2344,-55.9687 -1.3594,-12.2813 h 9.5625 l 25.5469,68.25 h -15.0469 z m 18.1406,41.9531 h -36.375 v -11.4375 h 36.375 z m 40.5469,-54.2344 17.3906,49.3594 17.4375,-49.3594 h 12.0937 l -24.7031,68.25 h -9.7031 l -24.6094,-68.25 z m -6.5157,0 2.1563,49.6875 v 18.5625 h -14.2031 v -68.25 z m 59.8594,0 v 68.25 h -14.2031 v -18.5625 l 2.1562,-49.6875 z"
         id="path53" /><path
         style="font-weight:bold;font-family:Heebo;-inkscape-font-specification:'Heebo Bold';fill:#34a853"
         d="m -1521.275,2301.6008 v 13.2656 l -40.3593,-17.1094 v -9.4219 l 10.6875,2.8594 z m -29.6718,-8.25 -10.6875,2.7187 v -9.4687 l 40.3593,-17.0625 v 13.1718 z m 48.8906,27.8906 v -11.4375 h 14.7187 q 5.5782,0 9.3282,-2.4375 3.7968,-2.4844 5.7187,-7.1719 1.9688,-4.7344 1.9688,-11.5312 v -3.1407 q 0,-6.8906 -1.9219,-11.5781 -1.9219,-4.6875 -5.7188,-7.0781 -3.75,-2.3906 -9.2343,-2.3906 h -15.1407 v -11.4844 h 15.1407 q 9.2343,0 16.2656,4.125 7.0312,4.0781 10.9687,11.4375 3.9844,7.3125 3.9844,17.0625 v 3.0469 q 0,9.75 -3.9844,17.1093 -3.9375,7.3125 -11.0156,11.3907 -7.0312,4.0781 -16.3594,4.0781 z m 8.0625,0 h -14.25 v -68.25 h 14.25 z m 93.9844,0 h -36.0469 v -11.4375 h 36.0469 z m -31.5938,0 h -14.25 v -68.25 h 14.25 z m 26.8594,-29.5313 h -31.3125 v -11.1093 h 31.3125 z m 4.5937,-27.2343 h -35.9062 v -11.4844 h 35.9062 z m 50.4093,-11.4844 h 15.75 l -23.7656,68.25 h -10.4062 l 2.25,-14.6719 z m -14.7187,53.5781 2.4375,14.6719 h -10.5 l -23.6719,-68.25 h 15.75 z m 37.5469,-23.9062 v -13.125 l 40.8281,17.1093 v 9.4219 l -10.875,-3 z m 29.9531,8.3906 10.875,-2.7188 v 9.4219 l -40.8281,17.1094 v -13.125 z"
         id="path54" /></g><g
       id="g1612"
       transform="translate(329.27651,-36.816368)"><path
         style="fill:#f7d000;fill-opacity:1;stroke-width:0.413169"
         d="m -317.18489,2087.5479 0.88536,-0.9424 -0.85447,-2.8794 c -1.38898,-4.6804 -5.28266,-14.2258 -7.07331,-17.3403 -2.87715,-5.004 -7.13708,-8.2294 -12.3439,-9.3461 -4.39521,-0.9426 -10.66035,0.5048 -13.1331,3.0339 l -1.26673,1.2957 2.99115,1.311 c 1.64513,0.721 6.10541,2.662 9.91172,4.3131 l 7.50721,2.9361 v 2.594 2.594 l 2.52368,3.082 c 1.50959,1.8436 4.53637,4.6528 6.27932,6.6534 1.74293,2.0006 3.2857,3.6375 3.42834,3.6375 0.14267,0 0.65779,-0.4241 1.14473,-0.9425 z"
         id="path1376" /><path
         style="fill:#4286f4;fill-opacity:1;stroke-width:0.413169"
         d="m -364.97393,2059.362 c 0,-2.8782 0.13775,-3.9183 0.51646,-3.8998 0.28404,0.014 2.09683,0.7426 4.02839,1.6193 l 3.51193,1.5939 0.6061,-0.8962 c 0.33336,-0.493 1.38452,-1.6929 2.33587,-2.6667 l 1.72977,-1.7705 -1.19555,-5.4352 c -0.65756,-2.9894 -1.33684,-5.5681 -1.50953,-5.7304 -0.17268,-0.1624 -2.26621,0.1355 -4.65226,0.6619 -2.38604,0.5265 -5.40733,1.0799 -6.71398,1.2298 l -2.37572,0.2727 v 6.2623 c 0,5.7794 0.0848,6.486 1.09981,9.1633 1.02641,2.7073 1.54642,3.4988 2.30883,3.5144 0.17043,0 0.30987,-1.76 0.30988,-3.9188 z"
         id="path1377" /><path
         style="fill:#ea4335;fill-opacity:1;stroke-width:1.16862"
         d="m -442.09815,2074.5228 c -2.69101,-2.3036 -3.03832,-2.4836 -3.03832,-2.4836 0,0 1.60116,-5.5665 2.88614,-8.7484 1.28499,-3.1819 3.82881,-8.0382 5.02734,-10.158 1.84225,-3.2584 1.89794,-3.2282 2.2318,-3.7365 1.49672,0.2727 3.95064,0.7888 5.32694,2.3859 1.25046,1.451 2.29348,3.0268 2.84243,3.9609 0.87382,1.4869 1.47789,3.3291 1.83814,5.6946 -0.75744,1.7219 -2.4948,5.6658 -3.68844,8.5215 -0.75575,1.8082 -1.49225,3.6246 -2.19881,5.4525 -0.85499,2.2119 -1.86437,5.0852 -2.46871,6.6721 -1.58454,-1.2189 -2.74564,-2.336 -4.59992,-3.914 -1.43536,-1.2215 -2.89785,-2.5677 -4.15859,-3.647 z"
         id="path1378" /><path
         style="fill:#4286f4;fill-opacity:1;stroke-width:0.413169"
         d="m -378.37798,2059.362 c 0,-2.8782 -0.13775,-3.9183 -0.51646,-3.8998 -0.28404,0.014 -2.09683,0.7426 -4.02839,1.6193 l -3.51193,1.5939 -0.6061,-0.8962 c -0.33336,-0.493 -1.38452,-1.6929 -2.33587,-2.6667 l -1.72977,-1.7705 1.19555,-5.4352 c 0.65756,-2.9894 1.33684,-5.5681 1.50953,-5.7304 0.17268,-0.1624 2.26621,0.1355 4.65226,0.6619 2.38604,0.5265 5.40733,1.0799 6.71398,1.2298 l 2.37572,0.2727 v 6.2623 c 0,5.7794 -0.0848,6.486 -1.09981,9.1633 -1.02641,2.7073 -1.54642,3.4988 -2.30883,3.5144 -0.17043,0 -0.30987,-1.76 -0.30988,-3.9188 z"
         id="path1379" /><path
         style="fill:#40a95a;fill-opacity:1;stroke-width:0.413169"
         d="m -380.03065,2037.0565 c -4.31444,-0.8619 -6.19752,-1.4515 -6.19752,-1.9407 0,-1.0525 3.00337,-6.5861 4.63815,-8.5456 1.70307,-2.0414 5.79449,-5.4263 6.55887,-5.4263 0.20774,0 0.37169,3.6448 0.37169,8.2634 v 8.2633 l -1.3428,-0.039 c -0.73854,-0.021 -2.55131,-0.2802 -4.02839,-0.5753 z"
         id="path1380" /><path
         style="fill:#40a95a;fill-opacity:1;stroke-width:0.413169"
         d="m -368.46192,2029.4073 c 0,-4.5449 0.12316,-8.2634 0.27369,-8.2634 0.7745,0 4.5099,2.8279 6.19756,4.6919 1.68815,1.8645 5.09744,8.0829 5.09744,9.2975 0,0.6415 -7.89913,2.5373 -10.57211,2.5373 h -0.99658 z"
         id="path1381" /><path
         style="fill:#f7d000;fill-opacity:1;stroke-width:0.413169"
         d="m -426.63367,2087.5479 -0.88536,-0.9424 0.85447,-2.8794 c 1.38898,-4.6804 5.28266,-14.2258 7.07331,-17.3403 2.87715,-5.004 7.13708,-8.2294 12.3439,-9.3461 4.39521,-0.9426 10.66035,0.5048 13.1331,3.0339 l 1.26673,1.2957 -2.99115,1.311 c -1.64513,0.721 -6.10541,2.662 -9.91172,4.3131 l -7.50721,2.9361 v 2.594 2.594 l -2.52368,3.082 c -1.50959,1.8436 -4.53637,4.6528 -6.27932,6.6534 -1.74293,2.0006 -3.2857,3.6375 -3.42834,3.6375 -0.14267,0 -0.65779,-0.4241 -1.14473,-0.9425 z"
         id="path1382" /><path
         style="fill:#4286f4;fill-opacity:1;stroke-width:0.413169"
         d="m -411.87699,2049.7558 c 1.44164,-2.7549 5.14573,-8.684 7.13966,-11.4283 l 1.94269,-2.6738 4.15369,1.9381 c 3.1105,1.4513 4.09235,2.0938 3.90944,2.5578 -0.13438,0.3409 -0.76528,2.8509 -1.40203,5.5778 -0.85026,3.6413 -1.30719,4.9118 -1.72044,4.7839 -0.30946,-0.096 -2.63302,-0.2546 -5.16345,-0.3529 -3.43483,-0.1336 -5.17861,-0.011 -6.88086,0.4839 -1.25405,0.3646 -2.39472,0.6629 -2.5348,0.6629 -0.14007,0 0.11018,-0.6972 0.5561,-1.5494 z"
         id="path1383" /><path
         style="fill:#4286f4;fill-opacity:1;stroke:none;stroke-width:0.413169;stroke-opacity:1"
         d="m -422.15833,2049.3831 c -1.51197,-2.1939 -4.71165,-4.8577 -6.98133,-5.812 l -1.35899,-0.5714 2.59564,-3.2678 c 3.71065,-4.6715 7.53398,-8.3045 11.42412,-10.8554 l 3.38002,-2.2164 2.48581,2.1535 c 1.36721,1.1844 2.36429,2.3501 2.2158,2.5904 -0.14848,0.2402 -1.26742,1.827 -2.48653,3.5262 -2.178,3.0357 -5.02898,7.7408 -8.22622,13.5762 l -1.61774,2.9526 z"
         id="path1384" /><path
         style="fill:#ea4335;fill-opacity:1;stroke-width:0.413169"
         d="m -405.31704,2024.9997 -1.51542,-1.5155 2.14206,-1.0048 c 2.65923,-1.2474 9.29643,-3.8145 9.86242,-3.8145 0.23048,0 -1.04048,1.1863 -2.82434,2.6362 -1.78382,1.4499 -3.78942,3.2162 -4.45685,3.9251 -0.66745,0.7089 -1.32127,1.2889 -1.45298,1.2889 -0.13173,0 -0.9214,-0.682 -1.75489,-1.5154 z"
         id="path1385" /><path
         style="fill:#f7d000;fill-opacity:1;stroke-width:0.413169"
         d="m -395.4186,2031.9572 c -1.30521,-0.6071 -2.37428,-1.2025 -2.37572,-1.323 -0.008,-0.6558 10.18827,-8.5269 10.56173,-8.1534 0.11005,0.11 -0.4175,1.1177 -1.17232,2.2394 -0.75481,1.1216 -2.00187,3.4718 -2.77125,5.2225 -0.76939,1.7507 -1.50471,3.1685 -1.63408,3.1507 -0.12937,-0.018 -1.30313,-0.5291 -2.60836,-1.1362 z"
         id="path1386" /><path
         style="fill:#ea4335;fill-opacity:1;stroke-width:1.16862"
         d="m -302.63784,2074.5228 c 2.69101,-2.3036 3.03832,-2.4836 3.03832,-2.4836 0,0 -1.60116,-5.5665 -2.88614,-8.7484 -1.28499,-3.1819 -3.82881,-8.0382 -5.02734,-10.158 -1.84225,-3.2584 -1.89794,-3.2282 -2.2318,-3.7365 -1.49672,0.2727 -3.95064,0.7888 -5.32694,2.3859 -1.25046,1.451 -2.29348,3.0268 -2.84243,3.9609 -0.87382,1.4869 -1.47789,3.3291 -1.83814,5.6946 0.75744,1.7219 2.4948,5.6658 3.68844,8.5215 0.75575,1.8082 1.49225,3.6246 2.19881,5.4525 0.85499,2.2119 1.86437,5.0852 2.46871,6.6721 1.58454,-1.2189 2.74564,-2.336 4.59992,-3.914 1.43536,-1.2215 2.89785,-2.5677 4.15859,-3.647 z"
         id="path1388" /><path
         style="fill:#4286f4;fill-opacity:1;stroke:none;stroke-width:0.413169;stroke-opacity:1"
         d="m -322.57766,2049.3831 c 1.51197,-2.1939 4.71165,-4.8577 6.98133,-5.812 l 1.35899,-0.5714 -2.59564,-3.2678 c -3.71065,-4.6715 -7.53398,-8.3045 -11.42412,-10.8554 l -3.38002,-2.2164 -2.48581,2.1535 c -1.36721,1.1844 -2.36429,2.3501 -2.2158,2.5904 0.14848,0.2402 1.26742,1.827 2.48653,3.5262 2.178,3.0357 5.02898,7.7408 8.22622,13.5762 l 1.61774,2.9526 z"
         id="path1389" /><path
         style="fill:#ea4335;fill-opacity:1;stroke-width:0.413169"
         d="m -339.41895,2024.8261 1.51542,-1.5155 -2.14206,-1.0048 c -2.65923,-1.2474 -9.29643,-3.8145 -9.86242,-3.8145 -0.23048,0 1.04048,1.1863 2.82434,2.6362 1.78382,1.4499 3.78942,3.2162 4.45685,3.9251 0.66745,0.7089 1.32127,1.2889 1.45298,1.2889 0.13173,0 0.9214,-0.682 1.75489,-1.5154 z"
         id="path1390" /><path
         style="fill:#4286f4;fill-opacity:1;stroke-width:0.413169"
         d="m -331.66609,2049.7558 c -1.44164,-2.7549 -5.14573,-8.684 -7.13966,-11.4283 l -1.94269,-2.6738 -4.15369,1.9381 c -3.1105,1.4513 -4.09235,2.0938 -3.90944,2.5578 0.13438,0.3409 0.76528,2.8509 1.40203,5.5778 0.85026,3.6413 1.30719,4.9118 1.72044,4.7839 0.30946,-0.096 2.63302,-0.2546 5.16345,-0.3529 3.43483,-0.1336 5.17861,-0.011 6.88086,0.4839 1.25405,0.3646 2.39472,0.6629 2.5348,0.6629 0.14007,0 -0.11018,-0.6972 -0.5561,-1.5494 z"
         id="path1391" /><path
         style="fill:#f7d000;fill-opacity:1;stroke-width:0.413169"
         d="m -348.12448,2031.9572 c 1.30521,-0.6071 2.37428,-1.2025 2.37572,-1.323 0.008,-0.6558 -10.18827,-8.5269 -10.56173,-8.1534 -0.11005,0.11 0.4175,1.1177 1.17232,2.2394 0.75481,1.1216 2.00187,3.4718 2.77125,5.2225 0.76939,1.7507 1.50471,3.1685 1.63408,3.1507 0.12937,-0.018 1.30313,-0.5291 2.60836,-1.1362 z"
         id="path1392" /><g
         id="g1610"
         transform="translate(183.98355,-199.4465)"
         style="fill:#f9f9f9"><path
           style="fill:#f9f9f9;fill-opacity:1;stroke:url(#linearGradient1610);stroke-width:4.29435;stroke-dasharray:none;stroke-opacity:1"
           d="m -547.16799,2303.7987 30.89551,-14.8265 0.12766,-18.3849 -31.15083,-13.4921 v 16.3092 l 18.25644,7.5615 -18.51178,7.1167 z"
           id="path1608" /><path
           style="fill:#f9f9f9;fill-opacity:1;stroke:url(#linearGradient1611);stroke-width:4.29435;stroke-dasharray:none;stroke-opacity:1"
           d="m -564.02691,2303.7987 -30.89551,-14.8265 -0.12766,-18.3849 31.15083,-13.4921 v 16.3092 l -18.25644,7.5615 18.51178,7.1167 z"
           id="path1609" /><path
           style="fill:#f9f9f9;stroke:url(#linearGradient1612);stroke-width:4.32088;stroke-dasharray:none;stroke-opacity:1"
           d="m -577.80388,2305.1439 h 17.48037 l 18.26037,-51.6271 h -16.96369 z"
           id="path1610" /></g></g></g></svg>
